<svg width="110" height="110" viewBox="0 0 110 110" fill="none" xmlns="http://www.w3.org/2000/svg">
<path fill-rule="evenodd" clip-rule="evenodd" d="M74.7372 47.5829L13.3021 5.15429C10.1907 3.19786 6.40357 3.72429 3.66929 5.79072C2.55878 6.60243 1.65014 7.65899 1.01382 8.8785C0.377497 10.098 0.0305917 11.4477 0 12.8229L0 96.9336C0 103.879 7.69214 108.374 13.3021 104.822L74.745 62.6529C79.8521 59.2036 79.8521 51.0243 74.745 47.575M108.044 13.6793C108.044 11.5954 107.216 9.59695 105.742 8.12345C104.269 6.64995 102.27 5.82215 100.186 5.82215C98.1026 5.82215 96.1041 6.64995 94.6306 8.12345C93.1571 9.59695 92.3293 11.5954 92.3293 13.6793V96.305C92.3293 98.3888 93.1571 100.387 94.6306 101.861C96.1041 103.334 98.1026 104.162 100.186 104.162C102.27 104.162 104.269 103.334 105.742 101.861C107.216 100.387 108.044 98.3888 108.044 96.305V13.6793Z" fill="#FFE7E7"/>
</svg>
